<svg width="453" height="354" viewBox="0 0 453 354" fill="none" xmlns="http://www.w3.org/2000/svg">
<path d="M356.159 2.74507L356.16 2.74535C396.369 11.1743 428.17 42.7595 439.638 83.6432L441.003 88.5029C454.258 157.494 424.71 231.641 373.208 277.787C321.704 323.936 251.072 343.442 183.419 338.845C135.117 335.551 86.4071 319.891 50.3012 286.692C14.1941 253.491 -7.1927 200.983 3.07594 151.856C6.95583 133.297 15.8009 114.971 31.0421 104.643L30.7616 104.229L31.0421 104.643C43.2014 96.4024 57.2982 94.2908 71.8727 95.3446C86.4533 96.3989 101.47 100.618 115.438 104.998C129.411 109.381 144.507 113.653 159.206 114.751C173.912 115.85 188.261 113.774 200.709 105.418C210.282 99.0006 217.196 89.7998 223.357 79.8803C225.711 76.0908 227.96 72.1862 230.206 68.2885C230.899 67.0858 231.592 65.8837 232.287 64.6859C235.239 59.6007 238.24 54.5849 241.532 49.8781L241.532 49.8778C263.964 17.764 302.521 -1.46144 340.493 0.659046L340.493 0.659059C345.758 0.950597 350.995 1.64788 356.159 2.74507Z" stroke="white"/>
<path d="M200.656 51.7555C200.656 76.7608 180.386 97.0317 155.38 97.0317C130.375 97.0317 110.104 76.7608 110.104 51.7555C110.104 26.7501 130.375 6.47925 155.38 6.47925C180.386 6.47925 200.656 26.7501 200.656 51.7555Z" stroke="white"/>
<path d="M363.845 2.74507L363.846 2.74535C404.056 11.1743 435.856 42.7595 447.325 83.6432L448.689 88.5029C461.944 157.494 432.397 231.641 380.895 277.787C329.391 323.936 258.758 343.442 191.106 338.845C142.803 335.551 94.0938 319.891 57.9879 286.692C21.8807 253.491 0.493942 200.983 10.7626 151.856C14.6425 133.297 23.4875 114.971 38.7287 104.643L38.4482 104.229L38.7288 104.643C50.888 96.4024 64.9849 94.2908 79.5593 95.3446C94.1399 96.3989 109.157 100.618 123.125 104.998C137.098 109.381 152.194 113.653 166.893 114.751C181.598 115.85 195.948 113.774 208.396 105.418C217.969 99.0006 224.882 89.7998 231.043 79.8803C233.397 76.0908 235.647 72.1862 237.893 68.2885C238.586 67.0858 239.279 65.8837 239.974 64.6859C242.925 59.6007 245.927 54.5849 249.219 49.8781L249.219 49.8778C271.65 17.764 310.207 -1.46144 348.179 0.659046L348.179 0.659059C353.445 0.950597 358.681 1.64788 363.845 2.74507Z" stroke="white"/>
<path d="M208.343 51.7555C208.343 76.7608 188.072 97.0317 163.067 97.0317C138.062 97.0317 117.791 76.7608 117.791 51.7555C117.791 26.7501 138.062 6.47925 163.067 6.47925C188.072 6.47925 208.343 26.7501 208.343 51.7555Z" stroke="white"/>
<path d="M162.964 110.597C188.246 110.597 208.74 90.1027 208.74 64.8212C208.74 39.5396 188.246 19.0449 162.964 19.0449C137.683 19.0449 117.188 39.5396 117.188 64.8212C117.188 90.1027 137.683 110.597 162.964 110.597Z" fill="#F9A474" fill-opacity="0.3"/>
<path d="M449.074 101.453L447.703 96.5739C436.189 55.5268 404.254 23.7922 363.846 15.3217C358.657 14.2191 353.395 13.5185 348.104 13.2255C309.953 11.095 271.233 30.4072 248.706 62.6572C235.488 81.5571 226.982 105.354 208.014 118.068C183.365 134.614 151.113 126.35 123.172 117.587C95.2305 108.824 62.9111 100.646 38.3456 117.295C22.9546 127.724 14.0642 146.195 10.1705 164.82C-0.140304 214.148 21.3336 266.827 57.5468 300.125C93.7599 333.423 142.59 349.11 190.969 352.409C258.733 357.014 329.505 337.478 381.126 291.225C432.747 244.972 462.376 170.644 449.074 101.453Z" fill="#F9A474" fill-opacity="0.3"/>
</svg>
